<mxfile host="app.diagrams.net" agent="Mozilla/5.0 (Windows NT 10.0; Win64; x64) AppleWebKit/537.36 (KHTML, like Gecko) Chrome/112.0.0.0 Safari/537.36 QuarkPC/1.9.5.161" version="24.8.6">
  <diagram name="第 1 页" id="0zziN4BGS7wihgSaBpgH">
    <mxGraphModel dx="1436" dy="788" grid="0" gridSize="10" guides="1" tooltips="1" connect="1" arrows="1" fold="1" page="1" pageScale="1" pageWidth="827" pageHeight="1169" background="#000000" math="0" shadow="0">
      <root>
        <mxCell id="0" />
        <mxCell id="1" parent="0" />
        <mxCell id="mJdEeOhVX0D9DXQmDLdD-1" value="物联网平台" style="rounded=0;whiteSpace=wrap;html=1;fillColor=#000000;fontColor=#ffffff;strokeColor=#003300;glass=0;shadow=1;verticalAlign=top;align=center;" vertex="1" parent="1">
          <mxGeometry x="148.5" y="164" width="536.89" height="417" as="geometry" />
        </mxCell>
        <mxCell id="mJdEeOhVX0D9DXQmDLdD-49" value="管理层" style="rounded=1;whiteSpace=wrap;html=1;fillColor=#000000;fontColor=#ffffff;strokeColor=#003300;glass=0;shadow=1;verticalAlign=top;align=center;" vertex="1" parent="1">
          <mxGeometry x="169.44" y="196" width="503" height="196" as="geometry" />
        </mxCell>
        <mxCell id="mJdEeOhVX0D9DXQmDLdD-4" value="数据中台" style="rounded=1;whiteSpace=wrap;html=1;fillColor=#000000;strokeColor=#003300;fontColor=#ffffff;shadow=1;glass=0;align=center;verticalAlign=middle;fontFamily=Helvetica;fontSize=12;" vertex="1" parent="1">
          <mxGeometry x="712" y="7" width="100" height="574" as="geometry" />
        </mxCell>
        <mxCell id="mJdEeOhVX0D9DXQmDLdD-5" value="基础服务平台" style="rounded=0;whiteSpace=wrap;html=1;fillColor=#000000;strokeColor=#003300;fontColor=#ffffff;align=center;verticalAlign=top;labelBackgroundColor=none;fontFamily=Helvetica;shadow=1;glass=0;fontSize=12;" vertex="1" parent="1">
          <mxGeometry x="5" y="604" width="804" height="418" as="geometry" />
        </mxCell>
        <mxCell id="mJdEeOhVX0D9DXQmDLdD-6" value="智慧集成服务平台" style="rounded=1;whiteSpace=wrap;html=1;fillColor=#000000;strokeColor=#003300;gradientColor=none;fontColor=#ffffff;verticalAlign=middle;align=center;shadow=1;glass=0;fontFamily=Helvetica;fontSize=12;" vertex="1" parent="1">
          <mxGeometry x="148.5" y="7" width="537.5" height="110" as="geometry" />
        </mxCell>
        <mxCell id="mJdEeOhVX0D9DXQmDLdD-7" value="安全平台" style="rounded=1;whiteSpace=wrap;html=1;fillColor=#000000;strokeColor=#003300;shadow=1;glass=0;align=center;verticalAlign=middle;fontFamily=Helvetica;fontSize=12;fontColor=#ffffff;" vertex="1" parent="1">
          <mxGeometry x="5" y="7" width="100" height="570" as="geometry" />
        </mxCell>
        <mxCell id="mJdEeOhVX0D9DXQmDLdD-11" value="设备管理" style="rounded=1;whiteSpace=wrap;html=1;fillColor=#000000;fontColor=#80FF00;strokeColor=#003300;" vertex="1" parent="1">
          <mxGeometry x="185.56" y="226" width="76" height="57" as="geometry" />
        </mxCell>
        <mxCell id="mJdEeOhVX0D9DXQmDLdD-12" value="设备管理" style="rounded=1;whiteSpace=wrap;html=1;fillColor=#000000;fontColor=#80FF00;strokeColor=#003300;" vertex="1" parent="1">
          <mxGeometry x="286.56" y="226" width="76" height="57" as="geometry" />
        </mxCell>
        <mxCell id="mJdEeOhVX0D9DXQmDLdD-13" value="设备管理" style="rounded=1;whiteSpace=wrap;html=1;fillColor=#000000;fontColor=#80FF00;strokeColor=#003300;" vertex="1" parent="1">
          <mxGeometry x="387.56" y="226" width="76" height="57" as="geometry" />
        </mxCell>
        <mxCell id="mJdEeOhVX0D9DXQmDLdD-50" value="" style="edgeStyle=orthogonalEdgeStyle;rounded=0;orthogonalLoop=1;jettySize=auto;html=1;" edge="1" parent="1" source="mJdEeOhVX0D9DXQmDLdD-14" target="mJdEeOhVX0D9DXQmDLdD-24">
          <mxGeometry relative="1" as="geometry" />
        </mxCell>
        <mxCell id="mJdEeOhVX0D9DXQmDLdD-14" value="设备管理" style="rounded=1;whiteSpace=wrap;html=1;fillColor=#000000;fontColor=#80FF00;strokeColor=#003300;" vertex="1" parent="1">
          <mxGeometry x="487.56" y="226" width="76" height="57" as="geometry" />
        </mxCell>
        <mxCell id="mJdEeOhVX0D9DXQmDLdD-21" value="设备管理" style="rounded=1;whiteSpace=wrap;html=1;fillColor=#000000;fontColor=#80FF00;strokeColor=#003300;" vertex="1" parent="1">
          <mxGeometry x="185" y="316" width="76" height="57" as="geometry" />
        </mxCell>
        <mxCell id="mJdEeOhVX0D9DXQmDLdD-22" value="设备管理" style="rounded=1;whiteSpace=wrap;html=1;fillColor=#000000;fontColor=#80FF00;strokeColor=#003300;" vertex="1" parent="1">
          <mxGeometry x="286" y="316" width="76" height="57" as="geometry" />
        </mxCell>
        <mxCell id="mJdEeOhVX0D9DXQmDLdD-23" value="设备管理" style="rounded=1;whiteSpace=wrap;html=1;fillColor=#000000;fontColor=#80FF00;strokeColor=#003300;" vertex="1" parent="1">
          <mxGeometry x="387" y="316" width="76" height="57" as="geometry" />
        </mxCell>
        <mxCell id="mJdEeOhVX0D9DXQmDLdD-24" value="设备管理" style="rounded=1;whiteSpace=wrap;html=1;fillColor=#000000;fontColor=#80FF00;strokeColor=#003300;" vertex="1" parent="1">
          <mxGeometry x="487" y="316" width="76" height="57" as="geometry" />
        </mxCell>
        <mxCell id="mJdEeOhVX0D9DXQmDLdD-27" value="用户与角色权限" style="rounded=1;whiteSpace=wrap;html=1;fillColor=#000000;fontColor=#ffffff;strokeColor=#003300;glass=0;shadow=1;verticalAlign=top;align=center;" vertex="1" parent="1">
          <mxGeometry x="36" y="630" width="372" height="222" as="geometry" />
        </mxCell>
        <mxCell id="mJdEeOhVX0D9DXQmDLdD-28" value="用户管理" style="rounded=1;whiteSpace=wrap;html=1;fillColor=#000000;fontColor=#80FF00;strokeColor=#003300;" vertex="1" parent="1">
          <mxGeometry x="69" y="672" width="76" height="57" as="geometry" />
        </mxCell>
        <mxCell id="mJdEeOhVX0D9DXQmDLdD-29" value="角色管理" style="rounded=1;whiteSpace=wrap;html=1;fillColor=#000000;fontColor=#80FF00;strokeColor=#003300;" vertex="1" parent="1">
          <mxGeometry x="185" y="672" width="76" height="57" as="geometry" />
        </mxCell>
        <mxCell id="mJdEeOhVX0D9DXQmDLdD-30" value="权限分配" style="rounded=1;whiteSpace=wrap;html=1;fillColor=#000000;fontColor=#80FF00;strokeColor=#003300;" vertex="1" parent="1">
          <mxGeometry x="301" y="672" width="76" height="57" as="geometry" />
        </mxCell>
        <mxCell id="mJdEeOhVX0D9DXQmDLdD-31" value="组织机构" style="rounded=1;whiteSpace=wrap;html=1;fillColor=#000000;fontColor=#80FF00;strokeColor=#003300;" vertex="1" parent="1">
          <mxGeometry x="68.44" y="760" width="76" height="57" as="geometry" />
        </mxCell>
        <mxCell id="mJdEeOhVX0D9DXQmDLdD-32" value="用户活动" style="rounded=1;whiteSpace=wrap;html=1;fillColor=#000000;fontColor=#80FF00;strokeColor=#003300;" vertex="1" parent="1">
          <mxGeometry x="185" y="760" width="76" height="57" as="geometry" />
        </mxCell>
        <mxCell id="mJdEeOhVX0D9DXQmDLdD-33" value="登录日志" style="rounded=1;whiteSpace=wrap;html=1;fillColor=#000000;fontColor=#80FF00;strokeColor=#003300;" vertex="1" parent="1">
          <mxGeometry x="301" y="760" width="76" height="57" as="geometry" />
        </mxCell>
        <mxCell id="mJdEeOhVX0D9DXQmDLdD-34" value="工作流引擎" style="rounded=1;whiteSpace=wrap;html=1;fillColor=#000000;fontColor=#ffffff;strokeColor=#003300;glass=0;shadow=1;verticalAlign=top;align=center;" vertex="1" parent="1">
          <mxGeometry x="431" y="630" width="355.94" height="222" as="geometry" />
        </mxCell>
        <mxCell id="mJdEeOhVX0D9DXQmDLdD-35" value="工作流" style="rounded=1;whiteSpace=wrap;html=1;fillColor=#000000;fontColor=#80FF00;strokeColor=#003300;" vertex="1" parent="1">
          <mxGeometry x="464" y="670" width="76" height="57" as="geometry" />
        </mxCell>
        <mxCell id="mJdEeOhVX0D9DXQmDLdD-36" value="工作流分类" style="rounded=1;whiteSpace=wrap;html=1;fillColor=#000000;fontColor=#80FF00;strokeColor=#003300;" vertex="1" parent="1">
          <mxGeometry x="576" y="670" width="76" height="57" as="geometry" />
        </mxCell>
        <mxCell id="mJdEeOhVX0D9DXQmDLdD-48" value="" style="edgeStyle=orthogonalEdgeStyle;rounded=0;orthogonalLoop=1;jettySize=auto;html=1;" edge="1" parent="1" source="mJdEeOhVX0D9DXQmDLdD-37" target="mJdEeOhVX0D9DXQmDLdD-36">
          <mxGeometry relative="1" as="geometry" />
        </mxCell>
        <mxCell id="mJdEeOhVX0D9DXQmDLdD-37" value="流程设计" style="rounded=1;whiteSpace=wrap;html=1;fillColor=#000000;fontColor=#80FF00;strokeColor=#003300;" vertex="1" parent="1">
          <mxGeometry x="688" y="670" width="76" height="57" as="geometry" />
        </mxCell>
        <mxCell id="mJdEeOhVX0D9DXQmDLdD-38" value="流程设计器" style="rounded=1;whiteSpace=wrap;html=1;fillColor=#000000;fontColor=#80FF00;strokeColor=#003300;" vertex="1" parent="1">
          <mxGeometry x="464" y="762" width="76" height="57" as="geometry" />
        </mxCell>
        <mxCell id="mJdEeOhVX0D9DXQmDLdD-39" value="任务管理" style="rounded=1;whiteSpace=wrap;html=1;fillColor=#000000;fontColor=#80FF00;strokeColor=#003300;" vertex="1" parent="1">
          <mxGeometry x="576" y="762" width="76" height="57" as="geometry" />
        </mxCell>
        <mxCell id="mJdEeOhVX0D9DXQmDLdD-40" value="流程监控" style="rounded=1;whiteSpace=wrap;html=1;fillColor=#000000;fontColor=#80FF00;strokeColor=#003300;" vertex="1" parent="1">
          <mxGeometry x="687.44" y="762" width="76" height="57" as="geometry" />
        </mxCell>
        <mxCell id="mJdEeOhVX0D9DXQmDLdD-41" value="通用设计器" style="rounded=1;whiteSpace=wrap;html=1;fillColor=#000000;fontColor=#80FF00;strokeColor=#003300;glass=0;shadow=1;verticalAlign=middle;align=center;fontFamily=Helvetica;fontSize=12;" vertex="1" parent="1">
          <mxGeometry x="36" y="957" width="750" height="48" as="geometry" />
        </mxCell>
        <mxCell id="mJdEeOhVX0D9DXQmDLdD-47" style="edgeStyle=orthogonalEdgeStyle;rounded=0;orthogonalLoop=1;jettySize=auto;html=1;entryX=0.421;entryY=0.986;entryDx=0;entryDy=0;entryPerimeter=0;" edge="1" parent="1" source="mJdEeOhVX0D9DXQmDLdD-44" target="mJdEeOhVX0D9DXQmDLdD-34">
          <mxGeometry relative="1" as="geometry" />
        </mxCell>
        <mxCell id="mJdEeOhVX0D9DXQmDLdD-42" value="组态设计器" style="rounded=1;whiteSpace=wrap;html=1;fillColor=#000000;fontColor=#80FF00;strokeColor=#003300;glass=0;shadow=1;verticalAlign=middle;align=center;fontFamily=Helvetica;fontSize=12;" vertex="1" parent="1">
          <mxGeometry x="35.94" y="879.007874015748" width="159" height="62.99212598425197" as="geometry" />
        </mxCell>
        <mxCell id="mJdEeOhVX0D9DXQmDLdD-43" value="大屏设计器" style="rounded=1;whiteSpace=wrap;html=1;fillColor=#000000;fontColor=#80FF00;strokeColor=#003300;glass=0;shadow=1;verticalAlign=middle;align=center;fontFamily=Helvetica;fontSize=12;" vertex="1" parent="1">
          <mxGeometry x="232" y="878" width="159" height="62.99212598425197" as="geometry" />
        </mxCell>
        <mxCell id="mJdEeOhVX0D9DXQmDLdD-44" value="报表设计器" style="rounded=1;whiteSpace=wrap;html=1;fillColor=#000000;fontColor=#80FF00;strokeColor=#003300;glass=0;shadow=1;verticalAlign=middle;align=center;fontFamily=Helvetica;fontSize=12;" vertex="1" parent="1">
          <mxGeometry x="625" y="879.007874015748" width="159" height="62.99212598425197" as="geometry" />
        </mxCell>
        <mxCell id="mJdEeOhVX0D9DXQmDLdD-46" value="表单设计器" style="rounded=1;whiteSpace=wrap;html=1;fillColor=#000000;fontColor=#80FF00;strokeColor=#003300;glass=0;shadow=1;verticalAlign=middle;align=center;fontFamily=Helvetica;fontSize=12;" vertex="1" parent="1">
          <mxGeometry x="429" y="878" width="159" height="62.99212598425197" as="geometry" />
        </mxCell>
        <mxCell id="mJdEeOhVX0D9DXQmDLdD-51" value="设备管理" style="rounded=1;whiteSpace=wrap;html=1;fillColor=#000000;fontColor=#80FF00;strokeColor=#003300;" vertex="1" parent="1">
          <mxGeometry x="581.56" y="226" width="76" height="57" as="geometry" />
        </mxCell>
        <mxCell id="mJdEeOhVX0D9DXQmDLdD-52" value="设备管理" style="rounded=1;whiteSpace=wrap;html=1;fillColor=#000000;fontColor=#80FF00;strokeColor=#003300;" vertex="1" parent="1">
          <mxGeometry x="581" y="316" width="76" height="57" as="geometry" />
        </mxCell>
      </root>
    </mxGraphModel>
  </diagram>
</mxfile>
